<svg xmlns="http://www.w3.org/2000/svg" version="1.0" width="400.000000pt" height="400.000000pt" viewBox="0 0 400.000000 400.000000" preserveAspectRatio="xMidYMid meet">

<g transform="translate(0.000000,400.000000) scale(0.100000,-0.100000)" fill="#ffffff" stroke="none">
<path d="M3658 3726 c-25 -13 -70 -31 -100 -41 -29 -10 -61 -21 -70 -26 -10 -5 -27 -9 -39 -9 -11 0 -30 -5 -41 -11 -24 -13 -99 -27 -208 -38 -41 -5 -82 -11 -90 -15 -8 -3 -112 -11 -230 -16 -363 -18 -469 -33 -750 -105 -36 -9 -73 -21 -82 -26 -10 -5 -27 -9 -37 -9 -11 0 -23 -4 -26 -10 -3 -5 -14 -10 -23 -10 -9 0 -30 -7 -46 -15 -15 -8 -34 -15 -40 -15 -13 0 -39 -12 -186 -83 -322 -156 -635 -435 -812 -724 -49 -80 -115 -208 -141 -273 -5 -14 -16 -37 -23 -52 -8 -14 -14 -35 -14 -46 0 -12 -4 -23 -9 -26 -5 -3 -11 -20 -14 -38 -3 -18 -13 -58 -22 -88 -37 -123 -59 -327 -59 -535 1 -192 13 -322 57 -628 9 -60 13 -123 10 -140 -9 -47 -54 -125 -161 -277 -122 -174 -142 -210 -142 -259 0 -48 24 -66 76 -57 37 7 97 69 129 133 20 38 153 244 177 273 22 26 45 41 100 63 50 20 75 21 508 28 444 7 547 13 660 38 117 25 242 61 255 72 5 5 17 9 27 9 10 0 26 4 36 10 9 5 35 16 57 26 78 32 221 107 290 153 39 25 77 49 85 52 8 4 24 15 35 26 11 10 36 29 55 43 52 36 244 225 309 305 72 89 131 170 131 181 0 4 6 15 14 23 37 42 206 379 206 411 0 6 4 18 10 28 16 28 60 167 60 189 0 11 3 23 7 27 14 13 39 124 62 270 6 37 13 72 16 76 5 9 22 135 35 260 4 47 16 148 25 225 9 77 20 174 25 215 4 41 16 150 25 242 21 195 17 218 -37 217 -18 0 -54 -10 -80 -23z m-148 -254 c0 -5 -35 -42 -77 -83 -149 -142 -239 -219 -694 -591 -52 -42 -103 -85 -114 -96 -43 -40 -71 -53 -83 -40 -17 21 8 213 37 291 14 36 14 112 1 138 -13 24 -42 25 -62 2 -21 -23 -48 -90 -48 -116 0 -11 -4 -34 -9 -51 -11 -34 -29 -117 -42 -186 -37 -205 -31 -195 -255 -387 -12 -10 -48 -42 -81 -70 -138 -121 -142 -121 -160 -8 -8 56 -9 100 -3 145 5 36 10 92 10 125 0 33 5 76 10 95 19 64 32 237 20 259 -26 49 -68 8 -97 -93 -24 -85 -36 -192 -66 -581 -9 -127 -18 -180 -32 -210 -11 -22 -106 -127 -216 -240 -172 -174 -200 -199 -216 -189 -43 26 -44 204 -3 499 6 39 13 88 15 110 3 22 13 84 22 137 13 76 14 103 5 123 -31 69 -88 -14 -120 -175 -6 -30 -16 -82 -23 -115 -19 -97 -29 -181 -39 -338 -5 -81 -14 -173 -20 -204 -5 -31 -10 -90 -10 -131 0 -123 -16 -159 -151 -332 -66 -85 -134 -170 -151 -187 -36 -37 -68 -43 -68 -14 0 11 -4 23 -10 26 -5 3 -10 34 -10 68 0 34 -5 80 -10 102 -13 58 -20 454 -9 565 15 159 39 292 59 329 5 11 10 29 10 40 0 12 4 29 9 39 5 9 17 37 26 62 21 56 85 188 123 255 88 154 289 383 437 498 126 97 371 238 500 288 51 19 164 58 205 69 25 7 63 18 85 25 22 7 67 18 100 25 33 6 77 16 97 21 105 27 313 45 648 58 215 8 323 19 390 41 34 11 70 12 70 2z m97 -168 c-15 -168 -28 -281 -33 -294 -3 -8 -10 -53 -15 -100 -14 -144 -27 -239 -33 -249 -4 -6 -11 -38 -16 -73 -14 -92 -26 -155 -45 -223 -9 -33 -20 -76 -24 -95 -5 -19 -16 -55 -25 -80 -10 -25 -20 -54 -22 -65 -3 -11 -10 -31 -16 -45 -20 -47 -36 -85 -46 -110 -13 -33 -84 -175 -112 -225 -123 -220 -323 -440 -542 -596 -74 -53 -96 -67 -216 -131 -107 -56 -96 -51 -192 -91 -100 -42 -191 -66 -320 -87 -30 -4 -78 -13 -107 -19 -67 -13 -430 -20 -693 -12 -184 5 -205 8 -205 23 0 22 186 258 242 308 24 21 62 43 85 49 85 24 146 32 453 60 66 6 131 13 145 16 14 3 90 10 170 15 242 16 332 31 398 68 17 10 22 21 20 40 -3 27 -4 27 -87 30 -47 2 -105 -2 -130 -8 -25 -6 -136 -15 -246 -20 -194 -10 -519 -28 -580 -33 -21 -1 -30 3 -33 15 -7 37 296 367 368 400 142 65 295 88 600 88 278 1 476 24 538 63 18 12 15 41 -6 61 -15 13 -25 14 -48 6 -51 -17 -301 -30 -577 -30 -227 0 -268 2 -273 15 -17 43 241 298 356 352 59 28 104 43 131 43 16 0 48 4 71 10 84 18 180 34 358 58 216 30 275 58 255 123 -6 19 -12 20 -98 16 -100 -5 -221 -22 -239 -33 -6 -4 -41 -11 -77 -15 -36 -4 -78 -11 -93 -14 -33 -9 -37 8 -12 43 8 12 106 94 217 183 333 264 421 339 635 543 69 65 107 95 114 88 6 -6 8 -35 5 -68z" fill="#ffffff"/>
</g>
</svg>